<svg version="1.1" xmlns="http://www.w3.org/2000/svg" xmlns:xlink="http://www.w3.org/1999/xlink" width="384px" height="512px" viewBox="0,0,192,256"><g fill="#ffffff" fill-rule="nonzero" stroke="none" stroke-width="1" stroke-linecap="butt" stroke-linejoin="miter" stroke-miterlimit="10" stroke-dasharray="" stroke-dashoffset="0" font-family="none" font-weight="none" font-size="none" text-anchor="none" style="mix-blend-mode: normal"><g transform="translate(-0.1,0.02037) scale(0.5,0.5)"><path d="M318.7,268.7c-0.2,-36.7 16.4,-64.4 50,-84.8c-18.8,-26.9 -47.2,-41.7 -84.7,-44.6c-35.5,-2.8 -74.3,20.7 -88.5,20.7c-15,0 -49.4,-19.7 -76.4,-19.7c-55.8,0.9 -115.1,44.5 -115.1,133.2c0,26.2 4.8,53.26667 14.4,81.2c12.8,36.7 59,126.7 107.2,125.2c25.2,-0.6 43,-17.9 75.8,-17.9c31.8,0 48.3,17.9 76.4,17.9c48.6,-0.7 90.4,-82.5 102.6,-119.3c-65.2,-30.7 -61.7,-90 -61.7,-91.9zM262.1,104.5c27.3,-32.4 24.8,-61.9 24,-72.5c-24.1,1.4 -52,16.4 -67.9,34.9c-17.5,19.8 -27.8,44.3 -25.6,71.9c26.1,2 49.9,-11.4 69.5,-34.3z"></path></g></g></svg>